The Running Man is a science fiction novel by Stephen King, first published under the pseudonym Richard Bachman in 1982 as a paperback original. It was collected in 1985 in the hardcover omnibus The Bachman Books. The novel is set in a dystopian United States during the year 2025, in which the nation's economy is in ruins and world violence is rising.

The story follows protagonist Ben Richards as he participates in the game show The Running Man in which contestants, allowed to go anywhere in the world, are chased by "Hunters," employed to kill them.

 
http://www.imdb.com/title/tt0093894/
General
General
Format : AVI
Format/Info : Audio Video Interleave
Format profile : OpenDML
File size : 951 MiB
Duration : 1h 41mn
Overall bit rate : 1 308 Kbps
Writing application : AVI-Mux GUI 1.17.7, Aug 8 2006 20:59:17

Video
ID : 0
Format : MPEG-4 Visual
Format profile : Simple@L1
Format settings, BVOP : No
Format settings, QPel : No
Format settings, GMC : No warppoints
Format settings, Matrix : Default (H.263)
Codec ID : DX50
Codec ID/Hint : DivX 5
Duration : 1h 41mn
Bit rate : 1 176 Kbps
Width : 720 pixels
Height : 384 pixels
Display aspect ratio : 1.875
Frame rate : 30.000 fps
Resolution : 8 bits
Colorimetry : 4:2:0
Scan type : Progressive
Bits/(Pixel*Frame) : 0.142
Stream size : 854 MiB (90%)
Writing library : Lavc51.39.0

Audio
ID : 1
Format : MPEG Audio
Format version : Version 1
Format profile : Layer 3
Codec ID : 55
Codec ID/Hint : MP3
Duration : 1h 41mn
Bit rate mode : Constant
Bit rate : 128 Kbps
Channel(s) : 2 channels
Sampling rate : 44.1 KHz
Stream size : 93.0 MiB (10%)
Alignment : Aligned on interleaves
Interleave, duration : 644 ms (19.31 video frames)
Interleave, preload duration : 209 ms 
http://www.traileraddict.com/trailer/the-running-man/trailer
 
Genre: Action | Sci-Fi | Thriller

Arnold Schwarzenegger... Ben Richards
Maria Conchita Alonso... Amber Mendez
Yaphet Kotto ... William Laughlin
Jim Brown ... Fireball
Jesse Ventura ... Captain Freedom
Erland van Lidth... Dynamo (as Erland Van Lidth)
Marvin J. McIntyre... Harold Weiss
Gus Rethwisch ... Buzzsaw (as Bernard Gus Rethwisch)
Professor Toru Tanaka... Subzero
Mick Fleetwood ... Mic
Dweezil Zappa ... Stevie
Richard Dawson ... Damon Killian
Karen Leigh Hopkins... Brenda
Sven-Ole Thorsen... Sven (as Sven Thorsen)
Edward Bunker ... Lenny (as Eddie Bunker)